<?xml version="1.0" encoding="UTF-8"?>
<svg version="1.1" xmlns="http://www.w3.org/2000/svg" width="512" height="512">
<path d="M0 0 C0.85507141 -0.00852997 1.71014282 -0.01705994 2.59112549 -0.02584839 C3.52109344 -0.02494202 4.4510614 -0.02403564 5.40921021 -0.02310181 C6.39502075 -0.02981903 7.3808313 -0.03653625 8.39651489 -0.04345703 C11.65747102 -0.06246489 14.91822165 -0.06636263 18.17922974 -0.06851196 C20.4460051 -0.07493786 22.71277962 -0.08166607 24.97955322 -0.08868408 C29.7324923 -0.10066377 34.48535866 -0.10436418 39.23831177 -0.10317993 C45.32708583 -0.10297669 51.41539343 -0.1302818 57.50405693 -0.16472435 C62.18638244 -0.18696727 66.86859523 -0.19101827 71.55096817 -0.18996048 C73.79564141 -0.19232025 76.04031758 -0.20116485 78.28493881 -0.21662521 C81.42565278 -0.23623214 84.56535476 -0.23046748 87.70608521 -0.21841431 C88.6320047 -0.22965332 89.55792419 -0.24089233 90.51190186 -0.25247192 C96.20109742 -0.1970218 99.32948544 0.52682692 103.68704224 4.26742554 C105.15579224 6.65023804 105.15579224 6.65023804 106.18704224 9.39242554 C106.78065552 10.95670288 106.78065552 10.95670288 107.38626099 12.55258179 C108.03014771 14.39142944 108.03014771 14.39142944 108.68704224 16.26742554 C108.95081665 17.01620972 109.21459106 17.7649939 109.48635864 18.53646851 C114.68704224 33.39341846 114.68704224 33.39341846 114.68704224 37.26742554 C115.84204224 37.59742554 116.99704224 37.92742554 118.18704224 38.26742554 C128.4905892 41.72347421 138.18018577 47.23256108 147.49954224 52.76742554 C148.12280396 53.13666138 148.74606567 53.50589722 149.38821411 53.88632202 C153.33116162 56.2827184 156.77381394 58.97994632 160.31204224 61.95492554 C163.23368507 64.10771499 164.87562859 65.22259605 168.51516724 65.42367554 C171.96630713 64.89273094 175.29269379 64.08863887 178.68704224 63.26742554 C182.30137113 62.58833579 185.9278088 62.01609857 189.56204224 61.45492554 C190.45391235 61.29532349 191.34578247 61.13572144 192.26467896 60.97128296 C197.9229213 60.07779245 201.72796225 59.94543943 206.68704224 63.26742554 C209.07196941 66.25146671 210.86226402 69.48167648 212.68704224 72.82992554 C213.23827759 73.8015564 213.78951294 74.77318726 214.35745239 75.77426147 C215.53911776 77.85830754 216.71287789 79.94685219 217.87942505 82.03939819 C220.27358573 86.3148699 222.73214608 90.55160821 225.19094849 94.79013062 C227.07917042 98.04696852 228.95864809 101.30869945 230.83547974 104.57211304 C234.78095896 111.43179788 238.73310472 118.28761422 242.68704224 125.14242554 C243.28565063 126.18108765 243.88425903 127.21974976 244.50100708 128.28988647 C245.36653198 129.79083862 245.36653198 129.79083862 246.24954224 131.32211304 C247.09065552 132.7872937 247.09065552 132.7872937 247.94876099 134.28207397 C249.1589824 136.36052727 250.39262732 138.42544417 251.64407349 140.4793396 C252.27700317 141.52573608 252.90993286 142.57213257 253.56204224 143.65023804 C254.13696411 144.58496948 254.71188599 145.51970093 255.30422974 146.48275757 C257.11799993 150.13527573 258.11445449 153.48654115 257.14797974 157.51351929 C253.46026779 164.95526893 248.16579783 170.8214816 242.64797974 176.94711304 C241.8688623 177.82230591 241.8688623 177.82230591 241.07400513 178.71517944 C239.98364346 179.9354786 238.87896143 181.14298356 237.76907349 182.34555054 C236.20247998 185.12809208 236.62464685 186.9842159 236.99954224 190.14242554 C237.77460398 198.18134086 237.81253723 206.19561546 237.81204224 214.26742554 C237.81776245 215.58573364 237.82348267 216.90404175 237.82937622 218.26229858 C237.82644212 224.95750657 237.51452628 231.33516144 236.56204224 237.95492554 C236.22507491 242.02226351 236.30485685 243.66071655 238.49563599 247.13851929 C240.64433002 249.50174752 242.87153571 251.67923321 245.22463989 253.83578491 C247.82373985 256.38021265 249.98827672 259.2528992 252.18704224 262.14242554 C252.60767944 262.67819214 253.02831665 263.21395874 253.46170044 263.76596069 C256.51346148 267.74304613 258.90992451 270.92069089 258.42214966 276.05648804 C257.61985288 279.56090757 256.38852226 282.03229254 254.58157349 285.13461304 C253.61175537 286.81514771 253.61175537 286.81514771 252.62234497 288.52963257 C251.91493125 289.73400686 251.20732545 290.93826835 250.49954224 292.14242554 C249.76965181 293.39960817 249.04057748 294.65726495 248.31228638 295.91537476 C246.46320975 299.10459525 244.60355127 302.28748998 242.74014282 305.46835327 C241.16819106 308.15380883 239.60358973 310.84353063 238.03860474 313.53305054 C235.76913774 317.43069036 233.49335592 321.32455489 231.21438599 325.21664429 C228.6865507 329.54119372 226.18196203 333.87862232 223.69094849 338.22445679 C223.3557872 338.80846252 223.02062592 339.39246826 222.67530823 339.99417114 C221.05829229 342.81186889 219.44410382 345.6311007 217.8352356 348.45346069 C215.14615695 353.14148407 212.42766954 357.81370394 209.56204224 362.39633179 C209.12633911 363.09959595 208.69063599 363.80286011 208.24172974 364.5274353 C206.25153836 366.75483699 204.53494938 367.43044727 201.68704224 368.26742554 C198.97762222 368.16675707 196.48068548 367.95696376 193.81204224 367.57992554 C193.07115356 367.48542114 192.33026489 367.39091675 191.56692505 367.29354858 C185.25506088 366.44780178 179.06212162 365.18461085 172.85891724 363.75570679 C168.44383584 363.07604524 166.00476917 363.35498633 162.31204224 365.91195679 C161.44579224 366.62738647 160.57954224 367.34281616 159.68704224 368.07992554 C149.12124039 376.24559462 129.66517256 391.26742554 115.68704224 391.26742554 C115.57529663 391.81197388 115.46355103 392.35652222 115.34841919 392.91757202 C114.16019928 398.50501335 112.6663579 403.90769485 110.87454224 409.32992554 C110.63928833 410.08080444 110.40403442 410.83168335 110.16165161 411.60531616 C105.98219094 424.29727415 105.98219094 424.29727415 100.87125301 427.35307598 C98.51389201 428.33990931 96.91065164 428.5210855 94.36735535 428.52812195 C93.51083878 428.53520676 92.6543222 428.54229156 91.77185059 428.54959106 C90.84031158 428.54711365 89.90877258 428.54463623 88.94900513 428.54208374 C87.96158829 428.54719467 86.97417145 428.5523056 85.95683289 428.55757141 C82.69105986 428.57147762 79.42549761 428.57050988 76.15969849 428.56820679 C73.89052756 428.57209307 71.62135736 428.5764276 69.35218811 428.58119202 C64.59504844 428.58865639 59.83798299 428.58836129 55.08084106 428.58309937 C48.98307481 428.57730369 42.8856122 428.59423728 36.78789616 428.61744404 C32.10132571 428.63217169 27.41482855 428.6330544 22.72823906 428.62993431 C20.47995845 428.63044798 18.2316738 428.63569429 15.9834156 428.64574623 C12.84023394 428.65807464 9.69764595 428.6513403 6.55447388 428.63973999 C5.62495911 428.64738373 4.69544434 428.65502747 3.73776245 428.66290283 C-1.10328732 428.62338788 -4.39605148 428.43794848 -8.31295776 425.26742554 C-12.86387761 419.86100331 -14.752046 413.17016414 -17.06295776 406.57992554 C-17.4741687 405.43974976 -17.88537964 404.29957397 -18.30905151 403.12484741 C-21.31295776 394.67698482 -21.31295776 394.67698482 -21.31295776 391.26742554 C-22.46795776 390.93742554 -23.62295776 390.60742554 -24.81295776 390.26742554 C-35.11650473 386.81137687 -44.8061013 381.30228999 -54.12545776 375.76742554 C-54.74871948 375.3981897 -55.3719812 375.02895386 -56.01412964 374.64852905 C-59.95707714 372.25213267 -63.39972947 369.55490476 -66.93795776 366.57992554 C-69.87650808 364.41150774 -71.51333401 363.31106121 -75.17623901 363.11117554 C-78.6196362 363.63621704 -81.9295163 364.4380486 -85.31295776 365.26742554 C-88.76124806 365.9186377 -92.22168734 366.4714191 -95.68795776 367.01742554 C-96.53221313 367.16864868 -97.37646851 367.31987183 -98.24630737 367.47567749 C-103.43243722 368.31957284 -107.46596007 368.69670839 -112.31295776 366.26742554 C-114.76069098 363.521198 -116.50365731 360.45927247 -118.31295776 357.26742554 C-118.88787964 356.28628784 -119.46280151 355.30515015 -120.05514526 354.29428101 C-121.65619562 351.53846463 -123.23574608 348.7718327 -124.80200195 345.99612427 C-126.55747363 342.88580174 -128.32449303 339.7820437 -130.09030151 336.67758179 C-130.62559731 335.73561951 -130.62559731 335.73561951 -131.17170715 334.77462769 C-134.5296306 328.87182782 -137.94544788 323.00360438 -141.37545776 317.14242554 C-141.93257446 316.18658569 -142.48969116 315.23074585 -143.06369019 314.24594116 C-145.8318333 309.49805766 -148.61204269 304.75801903 -151.42051697 300.03390503 C-152.82345881 297.66935336 -154.21701119 295.29934681 -155.60906982 292.92837524 C-156.59929778 291.249284 -157.6016033 289.57733384 -158.60421753 287.90560913 C-164.50073509 277.83815278 -164.50073509 277.83815278 -164.31295776 272.26742554 C-162.54378428 267.43168469 -159.47702676 263.78982727 -156.12545776 259.95492554 C-155.4027771 259.09918945 -155.4027771 259.09918945 -154.66549683 258.22616577 C-152.46401173 255.63843602 -150.27278355 253.23016071 -147.77780151 250.91586304 C-143.47422798 246.88679916 -143.47422798 246.88679916 -142.20993042 241.3218689 C-142.33932007 240.21980103 -142.46870972 239.11773315 -142.60202026 237.98226929 C-143.30572177 230.74157596 -143.46597479 223.57604417 -143.44332886 216.30844116 C-143.43796099 214.2686521 -143.44332053 212.22908309 -143.44967651 210.18930054 C-143.44923134 203.60753001 -143.22789152 197.16535584 -142.53561401 190.61508179 C-142.124771 185.57469979 -142.124771 185.57469979 -144.05123901 180.95101929 C-144.9007312 180.20980835 -145.75022339 179.46859741 -146.62545776 178.70492554 C-147.53940308 177.83609741 -148.45334839 176.96726929 -149.39498901 176.07211304 C-149.87532593 175.62577515 -150.35566284 175.17943726 -150.85055542 174.71957397 C-153.44534667 172.14297658 -155.61145487 169.24224956 -157.81295776 166.32992554 C-158.23359497 165.7858606 -158.65423218 165.24179565 -159.08761597 164.6812439 C-164.42838002 157.67633664 -164.42838002 157.67633664 -164.04586792 153.00717163 C-163.29602371 149.18101788 -162.20507732 146.71791107 -160.24264526 143.37289429 C-159.60117554 142.26591187 -158.95970581 141.15892944 -158.29879761 140.0184021 C-157.59535572 138.83047507 -156.89173783 137.64265225 -156.18795776 136.45492554 C-155.46109974 135.20915285 -154.73536875 133.96272197 -154.01071167 132.71566772 C-152.51798806 130.15007598 -151.01942797 127.58803765 -149.51608276 125.02865601 C-146.82667352 120.44535655 -144.18055536 115.83743005 -141.53390503 111.2293396 C-139.08579802 106.96967874 -136.6254853 102.71713837 -134.16403198 98.46517944 C-132.90692545 96.29351216 -131.65077354 94.12129206 -130.39547729 91.94857788 C-128.51700578 88.69882694 -126.63434042 85.45154201 -124.75045776 82.20492554 C-124.19084351 81.2358728 -123.63122925 80.26682007 -123.05465698 79.2684021 C-121.49548063 76.58787776 -119.91360107 73.92337141 -118.31295776 71.26742554 C-117.79878296 70.40649292 -117.28460815 69.5455603 -116.75485229 68.65853882 C-116.24937866 67.8501355 -115.74390503 67.04173218 -115.22311401 66.20883179 C-114.78233521 65.49541626 -114.3415564 64.78200073 -113.88742065 64.04696655 C-111.88821736 61.78736152 -110.19061342 61.10891304 -107.31295776 60.26742554 C-104.60353774 60.36809401 -102.10660101 60.57788731 -99.43795776 60.95492554 C-98.69706909 61.04942993 -97.95618042 61.14393433 -97.19284058 61.24130249 C-90.88097641 62.0870493 -84.68803715 63.35024022 -78.48483276 64.77914429 C-74.06975137 65.45880583 -71.6306847 65.17986475 -67.93795776 62.62289429 C-67.07170776 61.9074646 -66.20545776 61.19203491 -65.31295776 60.45492554 C-54.74715592 52.28925646 -35.29108809 37.26742554 -21.31295776 37.26742554 C-21.20121216 36.7228772 -21.08946655 36.17832886 -20.97433472 35.61727905 C-19.78611481 30.02983773 -18.29227343 24.62715622 -16.50045776 19.20492554 C-16.26520386 18.45404663 -16.02994995 17.70316772 -15.78756714 16.92953491 C-11.60760661 4.23605899 -11.60760661 4.23605899 -6.49674797 1.18219566 C-4.14331678 0.19636445 -2.53925342 0.01149015 0 0 Z M-58.57516479 124.32992554 C-63.01735809 129.28261534 -66.71453232 134.68525274 -70.31295776 140.26742554 C-70.93428589 141.20457397 -71.55561401 142.14172241 -72.19577026 143.10726929 C-90.21120144 171.90772316 -96.24981062 210.07804797 -89.27780151 243.18930054 C-88.96233963 244.55011652 -88.64071708 245.909519 -88.31295776 247.26742554 C-88.15198608 247.95771851 -87.9910144 248.64801147 -87.82516479 249.35922241 C-82.51250687 271.42640095 -71.54841986 290.47881356 -55.79293823 306.73178101 C-54.27103722 308.31092277 -52.77855912 309.91482933 -51.28561401 311.52133179 C-27.8761292 336.29149291 6.61372181 351.41247232 40.67532349 352.47055054 C72.04503219 352.93450392 102.2106029 345.17422834 127.68704224 326.26742554 C128.47465942 325.7015271 129.26227661 325.13562866 130.07376099 324.55258179 C155.97816019 304.98512652 174.52732232 276.99120058 181.68704224 245.26742554 C181.84640259 244.61161499 182.00576294 243.95580444 182.16995239 243.28012085 C187.20600365 221.98452203 186.58077879 198.29019494 180.68704224 177.26742554 C180.50512329 176.59759644 180.32320435 175.92776733 180.13577271 175.23764038 C172.43539219 147.63600836 154.38659869 122.48098209 131.68704224 105.26742554 C130.90973755 104.67445679 130.13243286 104.08148804 129.33157349 103.47055054 C68.95567034 59.37692613 -8.56841203 71.17220681 -58.57516479 124.32992554 Z " fill="#000000" transform="translate(209.31295776367188,41.732574462890625)"/>
<path d="M0 0 C0.96292969 0.20109375 0.96292969 0.20109375 1.9453125 0.40625 C5.05567384 2.16920785 6.63645685 4.21274888 7.875 7.5 C8.24226308 11.61650736 8.10835369 15.67939034 7.93294144 19.80533218 C7.82166675 22.64600547 7.78253407 25.48635729 7.73825645 28.32873344 C7.65466722 33.60641851 7.54080866 38.87986073 7.30957031 44.15332031 C5.97775062 60.31661205 5.97775062 60.31661205 10.62780762 75.10974121 C15.18699791 79.63305859 20.63643239 82.89306094 26.875 84.5 C29.45465357 84.60845 29.45465357 84.60845 31.875 83.5 C32.51788971 83.30225983 33.16077942 83.10451965 33.82315063 82.90078735 C39.90568812 80.84002181 45.25128979 77.92981764 48.875 72.5 C51.67188199 62.73880428 50.72514262 51.96229894 50.33099365 41.90460205 C50.16972714 37.36568498 50.11583341 32.82446856 50.05723 28.28324699 C50.01127993 24.75156498 49.94619712 21.22437677 49.81869507 17.6946106 C49.78361847 16.42914398 49.74854187 15.16367737 49.71240234 13.85986328 C49.67222992 12.74942657 49.6320575 11.63898987 49.59066772 10.49490356 C49.91969795 7.02919148 50.78048617 5.2573773 52.875 2.5 C56.84874176 0.08458834 59.04641978 -0.59508298 63.6875 -0.0625 C82.23504178 5.83411733 96.98956593 22.97864602 105.875 39.5 C116.57607987 61.15296631 117.29457214 84.94594491 109.96508789 107.73974609 C103.81174801 125.79335092 90.22347098 143.82576451 72.875 152.5 C72.545 164.38 72.215 176.26 71.875 188.5 C54.37258863 194.33413712 54.37258863 194.33413712 46.9375 195.3125 C46.09614502 195.42940186 45.25479004 195.54630371 44.38793945 195.66674805 C24.62643521 198.21607734 4.38240444 196.05243709 -14.125 188.5 C-14.10816162 187.44087402 -14.09132324 186.38174805 -14.07397461 185.29052734 C-14.0231562 181.34267644 -14.03175302 177.39676027 -14.05786133 173.44873047 C-14.0609345 171.7436054 -14.04811418 170.03837191 -14.01879883 168.33349609 C-13.48269301 158.6932714 -13.48269301 158.6932714 -16.9909668 150.18847656 C-19.30662546 148.67301983 -21.58432446 147.58548657 -24.125 146.5 C-41.72966227 133.79071134 -52.55863713 113.61286822 -56.125 92.5 C-59.91672437 68.92373365 -53.80700132 45.69454335 -39.9609375 26.5 C-32.3846433 16.86231127 -14.23418668 -3.45769717 0 0 Z " fill="#000000" transform="translate(227.125,177.5)"/>
</svg>
