<?xml version="1.0" encoding="UTF-8"?>
<svg version="1.1" xmlns="http://www.w3.org/2000/svg" width="512" height="512">
<path d="M0 0 C0.96457626 -0.01591187 1.92915253 -0.03182373 2.92295837 -0.04821777 C4.47618553 -0.0485199 4.47618553 -0.0485199 6.06079102 -0.04882812 C7.13087906 -0.05644165 8.2009671 -0.06405518 9.30348206 -0.07189941 C11.56541613 -0.08269963 13.82740008 -0.08555385 16.08935547 -0.08105469 C19.54877948 -0.0800826 23.00598425 -0.12170286 26.46508789 -0.16601562 C28.66365097 -0.17122281 30.86222177 -0.17391082 33.06079102 -0.17382812 C34.09425156 -0.19022339 35.1277121 -0.20661865 36.19248962 -0.22351074 C43.36210399 -0.15456963 43.36210399 -0.15456963 47.25634766 2.76953125 C49.59507523 6.08275408 50.25463247 8.47104008 50.22485352 12.43164062 C50.22163086 13.18896484 50.2184082 13.94628906 50.21508789 14.7265625 C50.20670898 15.51224609 50.19833008 16.29792969 50.18969727 17.10742188 C50.18518555 17.90470703 50.18067383 18.70199219 50.17602539 19.5234375 C50.16425577 21.48896444 50.14632075 23.45445273 50.12719727 25.41992188 C50.80782227 25.55527344 51.48844727 25.690625 52.18969727 25.83007812 C62.43373198 28.10501668 72.23895169 32.05521012 81.35375977 37.26367188 C83.98174746 38.68907274 83.98174746 38.68907274 86.25610352 37.85742188 C89.16773184 35.62051327 91.54289549 32.9842562 94.02954102 30.29492188 C97.59294122 27.10975968 100.02147815 26.41457776 104.81469727 26.43774414 C110.29865912 27.21282249 113.18393174 30.57222688 116.87329102 34.44726562 C117.5698732 35.15138077 118.26645538 35.85549591 118.98414612 36.58094788 C121.1946191 38.82384036 123.37925819 41.09015819 125.56469727 43.35742188 C127.05987186 44.87914856 128.55660155 46.39934894 130.05493164 47.91796875 C132.78023434 50.69351204 135.50248326 53.47167664 138.203125 56.27124023 C138.74525131 56.83225937 139.28737762 57.3932785 139.84593201 57.97129822 C142.32343379 60.77241037 142.64127706 63.49332858 142.60766602 67.19726562 C141.65814114 71.58978315 138.2583145 74.38584339 135.12719727 77.41992188 C134.60641602 77.95230469 134.08563477 78.4846875 133.54907227 79.03320312 C132.42564659 80.17922645 131.27929985 81.30273149 130.12719727 82.41992188 C131.59195143 87.15840161 133.48961484 91.52390791 135.62719727 95.98242188 C141.12719727 107.52321685 141.12719727 107.52321685 141.12719727 111.41992188 C141.67977707 111.25824524 142.23235687 111.0965686 142.80168152 110.92999268 C145.37529598 110.36550474 147.70067255 110.27852511 150.33544922 110.25878906 C151.37365311 110.24918152 152.41185699 110.23957397 153.48152161 110.22967529 C155.15658028 110.22330048 155.15658028 110.22330048 156.86547852 110.21679688 C158.59667183 110.20824677 158.59667183 110.20824677 160.36283875 110.19952393 C162.80470871 110.19007997 165.24659138 110.18354235 167.68847656 110.1796875 C171.41502227 110.16998611 175.14101543 110.13895783 178.86743164 110.10742188 C181.24177733 110.1008911 183.61612696 110.09564092 185.99047852 110.09179688 C187.1011116 110.07945007 188.21174469 110.06710327 189.35603333 110.05438232 C196.55521856 110.07500491 201.57188258 110.72941347 207.43969727 115.16992188 C211.71460159 120.86979431 211.38683569 127.54782472 211.25219727 134.35742188 C211.24317383 135.23205078 211.23415039 136.10667969 211.22485352 137.0078125 C211.20149297 139.14530251 211.16562973 141.28264973 211.12719727 143.41992188 C211.80782227 143.566875 212.48844727 143.71382812 213.18969727 143.86523438 C225.99871644 146.82902339 237.92897147 151.27298372 249.25537109 157.9675293 C252.48072759 159.91640374 252.48072759 159.91640374 256.1237793 160.19165039 C258.43309069 159.30208991 259.58411084 158.29457652 261.29125977 156.51367188 C261.85586914 155.93488281 262.42047852 155.35609375 263.00219727 154.75976562 C263.57969727 154.15261719 264.15719727 153.54546875 264.75219727 152.91992188 C265.90888942 151.71991746 267.06764975 150.52190214 268.22875977 149.32617188 C268.73745605 148.79314453 269.24615234 148.26011719 269.77026367 147.7109375 C272.45336154 145.15818084 274.78953069 145.20054437 278.37719727 145.10742188 C279.31047852 145.07003906 280.24375977 145.03265625 281.20532227 144.99414062 C288.44312711 146.04884748 293.59847855 152.59903138 298.51782227 157.54492188 C299.30364685 158.32883301 300.08947144 159.11274414 300.89910889 159.92041016 C302.55214183 161.5720867 304.2026702 163.22627324 305.85083008 164.8828125 C308.37563356 167.41835152 310.91096079 169.94301411 313.44750977 172.46679688 C315.05492251 174.07553075 316.661715 175.68488466 318.26782227 177.29492188 C319.02613342 178.04918457 319.78444458 178.80344727 320.56573486 179.58056641 C321.26696472 180.28810059 321.96819458 180.99563477 322.69067383 181.72460938 C323.30767151 182.34319824 323.92466919 182.96178711 324.56036377 183.59912109 C327.4812977 186.9935078 328.43292955 189.84793472 328.50219727 194.29492188 C328.53055664 195.11734375 328.55891602 195.93976563 328.58813477 196.78710938 C327.39970244 203.5752737 321.68090805 208.00380983 316.75415039 212.36328125 C315.08628303 213.87064081 315.08628303 213.87064081 313.12719727 216.41992188 C313.0326676 220.87735929 315.6940654 224.69162301 317.75219727 228.54492188 C320.95406271 234.73582675 323.65926106 241.00351067 326.06469727 247.54492188 C326.35876465 248.33785645 326.65283203 249.13079102 326.95581055 249.94775391 C328.44490549 254.09197488 329.57281958 258.02700503 330.12719727 262.41992188 C330.69639893 262.40421143 331.26560059 262.38850098 331.85205078 262.37231445 C334.46449601 262.30943748 337.07678137 262.27076655 339.68969727 262.23242188 C341.03257812 262.1947168 341.03257812 262.1947168 342.40258789 262.15625 C349.23660898 262.08115087 354.17747421 262.85832028 359.50219727 267.48242188 C362.28241281 270.79729426 362.26094714 272.89963765 362.28833008 277.16723633 C362.29793762 278.37221268 362.30754517 279.57718903 362.31744385 280.81867981 C362.32381866 282.78111885 362.32381866 282.78111885 362.33032227 284.78320312 C362.33607472 286.13600161 362.34183244 287.48880007 362.34759521 288.84159851 C362.35810578 291.6804543 362.36394775 294.51928178 362.36743164 297.3581543 C362.37290988 300.98981824 362.39692278 304.62110603 362.42540359 308.25265217 C362.44406181 311.04854918 362.4492373 313.84435628 362.45076752 316.64031029 C362.4552549 318.62835913 362.47388823 320.61635979 362.49273682 322.60432434 C362.48973572 323.81875717 362.48673462 325.03319 362.48364258 326.28442383 C362.48728821 327.35094681 362.49093384 328.41746979 362.49468994 329.51631165 C362.07158796 332.85929866 361.09959593 334.71192713 359.12719727 337.41992188 C355.5080516 340.20817027 352.90997613 340.785421 348.38891602 340.71289062 C347.3222168 340.70322266 346.25551758 340.69355469 345.15649414 340.68359375 C344.05370117 340.65845703 342.9509082 340.63332031 341.81469727 340.60742188 C340.69256836 340.59388672 339.57043945 340.58035156 338.41430664 340.56640625 C335.65144498 340.53113568 332.88956898 340.48184422 330.12719727 340.41992188 C330.01327637 341.05333496 329.89935547 341.68674805 329.78198242 342.33935547 C327.44492581 354.74087082 322.64922141 365.99337428 316.75561523 377.10400391 C313.95589505 382.02266107 313.95589505 382.02266107 313.12719727 387.41992188 C314.94339968 389.91804268 317.15524494 391.91666842 319.43969727 393.98242188 C320.64848454 395.10404316 321.8530704 396.23021297 323.05297852 397.36132812 C323.59349854 397.85318604 324.13401855 398.34504395 324.69091797 398.85180664 C327.62262406 402.05261374 328.43557606 405.01784048 328.50219727 409.29492188 C328.53055664 410.11734375 328.55891602 410.93976563 328.58813477 411.78710938 C327.35375436 418.83772288 320.84938006 423.98938105 316.00219727 428.81054688 C315.21828613 429.59637146 314.434375 430.38219604 313.62670898 431.1918335 C311.97503244 432.84486644 310.3208459 434.49539481 308.66430664 436.14355469 C306.12876762 438.66835817 303.60410503 441.2036854 301.08032227 443.74023438 C299.47158839 445.34764712 297.86223448 446.95443961 296.25219727 448.56054688 C295.49793457 449.31885803 294.74367188 450.07716919 293.96655273 450.85845947 C292.90525146 451.91030426 292.90525146 451.91030426 291.82250977 452.98339844 C291.2039209 453.60039612 290.58533203 454.2173938 289.94799805 454.85308838 C286.55361134 457.77402231 283.69918442 458.72565416 279.25219727 458.79492188 C278.42977539 458.82328125 277.60735352 458.85164063 276.76000977 458.88085938 C269.97184544 457.69242705 265.54330931 451.97363266 261.18383789 447.046875 C259.67647833 445.37900764 259.67647833 445.37900764 257.12719727 443.41992188 C252.66975985 443.32539221 248.85549613 445.98679001 245.00219727 448.04492188 C238.81129239 451.24678732 232.54360847 453.95198567 226.00219727 456.35742188 C225.2092627 456.65148926 224.41632813 456.94555664 223.59936523 457.24853516 C219.45514427 458.7376301 215.52011411 459.86554419 211.12719727 460.41992188 C211.15040039 461.71027344 211.17360352 463.000625 211.19750977 464.33007812 C211.21627962 466.04752022 211.23447851 467.76496862 211.25219727 469.48242188 C211.26895508 470.32998047 211.28571289 471.17753906 211.30297852 472.05078125 C211.3541492 478.67738475 211.14681169 484.09736529 206.62719727 489.29492188 C202.95243009 492.41847397 201.13532635 492.5505415 196.37988281 492.58105469 C195.17490646 492.59066223 193.96993011 492.60026978 192.72843933 492.61016846 C190.76600029 492.61654327 190.76600029 492.61654327 188.76391602 492.62304688 C187.41111753 492.62879933 186.05831907 492.63455705 184.70552063 492.64031982 C181.86666484 492.65083039 179.02783736 492.65667236 176.18896484 492.66015625 C172.5573009 492.66563448 168.92601312 492.68964739 165.29446697 492.7181282 C162.49856996 492.73678642 159.70276286 492.74196191 156.90680885 492.74349213 C154.91876001 492.74797951 152.93075935 492.76661284 150.9427948 492.78546143 C149.72836197 492.78246033 148.51392914 492.77945923 147.26269531 492.77636719 C146.19617233 492.78001282 145.12964935 492.78365845 144.0308075 492.78741455 C140.68568455 492.36404224 138.83246026 491.40102812 136.12719727 489.41992188 C132.89884141 484.92328336 131.99454356 481.11389922 132.02954102 475.65429688 C132.03276367 474.76484375 132.03598633 473.87539063 132.03930664 472.95898438 C132.04768555 472.03859375 132.05606445 471.11820312 132.06469727 470.16992188 C132.06920898 469.2340625 132.0737207 468.29820312 132.07836914 467.33398438 C132.09012808 465.02923147 132.10656301 462.72460961 132.12719727 460.41992188 C131.41136475 460.27192139 130.69553223 460.1239209 129.95800781 459.97143555 C116.46742835 457.08852769 102.91925975 451.66496093 91.22094727 444.35351562 C88.62548601 443.19621107 87.76458448 443.48778526 85.12719727 444.41992188 C83.03027043 446.35445084 81.07391605 448.28300991 79.12719727 450.35742188 C71.87663446 458.02973772 71.87663446 458.02973772 66.76000977 458.75585938 C65.93243164 458.76875 65.10485352 458.78164063 64.25219727 458.79492188 C63.42977539 458.82328125 62.60735352 458.85164063 61.76000977 458.88085938 C54.70939626 457.64647897 49.55773809 451.14210467 44.73657227 446.29492188 C43.95074768 445.51101074 43.1649231 444.72709961 42.35528564 443.91943359 C40.70225271 442.26775705 39.05172433 440.61357051 37.40356445 438.95703125 C34.87876097 436.42149223 32.34343374 433.89682964 29.80688477 431.37304688 C28.19947202 429.764313 26.59267954 428.15495909 24.98657227 426.54492188 C24.22826111 425.79065918 23.46994995 425.03639648 22.68865967 424.25927734 C21.63681488 423.19797607 21.63681488 423.19797607 20.5637207 422.11523438 C19.94672302 421.49664551 19.32972534 420.87805664 18.69403076 420.24072266 C14.95164724 415.89173799 14.51162698 411.83405018 14.62329102 406.22851562 C15.50569551 401.31030762 18.54036725 398.68554324 22.12719727 395.41992188 C23.63675839 394.03443427 25.13697429 392.63868863 26.62719727 391.23242188 C27.31813477 390.62011719 28.00907227 390.0078125 28.72094727 389.37695312 C30.35805596 387.5126298 30.35805596 387.5126298 30.07641602 385.13867188 C28.84742759 381.61860626 27.181973 378.39196105 25.43969727 375.10742188 C19.69883737 363.93902823 15.35530531 352.80845475 13.12719727 340.41992188 C12.4263501 340.43563232 11.72550293 340.45134277 11.00341797 340.4675293 C7.81559376 340.530046 4.62789875 340.56896568 1.43969727 340.60742188 C-0.21449219 340.64512695 -0.21449219 340.64512695 -1.90209961 340.68359375 C-2.96879883 340.69326172 -4.03549805 340.70292969 -5.13452148 340.71289062 C-6.11380615 340.72860107 -7.09309082 340.74431152 -8.10205078 340.76049805 C-11.38122265 340.35742775 -13.21427902 339.35001182 -15.87280273 337.41992188 C-19.22969364 332.7442524 -19.99729971 328.83108895 -20.00219727 323.1640625 C-20.00534943 322.11617554 -20.00850159 321.06828857 -20.01174927 319.98864746 C-20.00871292 318.29947205 -20.00871292 318.29947205 -20.00561523 316.57617188 C-20.00657196 315.41492798 -20.00752869 314.25368408 -20.0085144 313.05725098 C-20.00919471 310.60278265 -20.00735082 308.14831252 -20.00317383 305.69384766 C-19.99782352 301.93452925 -20.00312391 298.17533031 -20.00952148 294.41601562 C-20.00886068 292.03190078 -20.00757946 289.647786 -20.00561523 287.26367188 C-20.00763947 286.13755493 -20.0096637 285.01143799 -20.01174927 283.85119629 C-20.00702103 282.27936584 -20.00702103 282.27936584 -20.00219727 280.67578125 C-20.00140167 279.75518921 -20.00060608 278.83459717 -19.99978638 277.8861084 C-19.88144324 275.58773172 -19.52065373 273.62130501 -18.87280273 271.41992188 C-19.48124023 271.29617188 -20.08967773 271.17242187 -20.71655273 271.04492188 C-27.90556224 269.35339023 -33.9893241 266.54000289 -40.38842773 262.9375 C-44.02471509 260.85061748 -44.02471509 260.85061748 -48.05639648 260.90429688 C-50.34721046 262.81577176 -52.43102076 264.82923597 -54.49780273 266.98242188 C-59.56091115 272.23897131 -59.56091115 272.23897131 -64.49780273 272.91992188 C-68.07290517 272.84095136 -69.69419342 272.1109988 -72.30639648 269.69726562 C-72.99797852 269.06095215 -73.68956055 268.42463867 -74.40209961 267.76904297 C-75.62509766 266.60622803 -75.62509766 266.60622803 -76.87280273 265.41992188 C-77.60345947 264.73255951 -77.60345947 264.73255951 -78.34887695 264.03131104 C-81.78057664 260.79991691 -85.16797763 257.52689845 -88.52978516 254.22290039 C-89.72233231 253.05717042 -90.92198437 251.89866716 -92.12841797 250.74731445 C-93.89246366 249.06248737 -95.63232291 247.35565372 -97.36889648 245.64257812 C-97.90735703 245.13710953 -98.44581757 244.63164093 -99.00059509 244.1108551 C-103.1253234 239.96362056 -103.72231579 237.05611123 -103.87280273 231.41992188 C-101.98149646 225.07053652 -96.56543303 220.84693159 -91.87280273 216.41992188 C-93.2819414 211.85068511 -95.1477398 207.63903265 -97.24780273 203.35742188 C-104.87280273 187.4543042 -104.87280273 187.4543042 -104.87280273 180.41992188 C-106.03038086 180.45472656 -107.18795898 180.48953125 -108.38061523 180.52539062 C-109.91966314 180.55354394 -111.45872685 180.58084244 -112.99780273 180.60742188 C-113.75834961 180.63255859 -114.51889648 180.65769531 -115.30249023 180.68359375 C-120.2461712 180.74752066 -123.60716932 180.20101114 -127.87280273 177.41992188 C-130.00897351 174.21566571 -130.1302025 173.3487459 -130.16333008 169.66064453 C-130.17608978 168.69599274 -130.18884949 167.73134094 -130.20199585 166.73745728 C-130.2042215 165.69681122 -130.20644714 164.65616516 -130.20874023 163.58398438 C-130.21539703 162.51248138 -130.22205383 161.44097839 -130.22891235 160.33700562 C-130.2390426 158.06908893 -130.24372926 155.80114241 -130.2434082 153.53320312 C-130.24777712 150.06525442 -130.28408248 146.59858247 -130.32202148 143.13085938 C-130.32789038 140.92773873 -130.33185929 138.72461204 -130.33374023 136.52148438 C-130.34811127 135.48488678 -130.3624823 134.44828918 -130.37728882 133.38027954 C-130.33171719 126.18928556 -130.33171719 126.18928556 -128.01635742 122.30761719 C-123.27825224 118.1350626 -118.04193989 118.1426471 -111.99780273 118.29492188 C-111.30944336 118.30394531 -110.62108398 118.31296875 -109.91186523 118.32226562 C-108.23202435 118.34559675 -106.55236527 118.38145861 -104.87280273 118.41992188 C-104.74905273 117.7625 -104.62530273 117.10507813 -104.49780273 116.42773438 C-102.1716811 105.69849832 -97.98483237 94.58796633 -91.87280273 85.41992188 C-92.07834875 81.4076637 -94.49382677 79.55163702 -97.31030273 76.91992188 C-101.1392096 73.33070581 -103.55826127 70.83140647 -104.24780273 65.54492188 C-103.45086071 58.90373833 -98.04838766 54.29807834 -93.49780273 49.77929688 C-92.89145996 49.17104065 -92.28511719 48.56278442 -91.66040039 47.93609619 C-90.38534992 46.6596919 -89.10779903 45.38578096 -87.82788086 44.11425781 C-85.87174488 42.16886983 -83.92655619 40.21299107 -81.98217773 38.25585938 C-80.73802714 37.01302979 -79.4932566 35.77082043 -78.24780273 34.52929688 C-77.66853027 33.94597595 -77.08925781 33.36265503 -76.49243164 32.76165771 C-72.88456674 29.19534645 -70.17946165 26.72079043 -64.99780273 26.04492188 C-58.11677717 26.87064494 -54.2005213 31.98912019 -49.80249023 36.90820312 C-48.04261152 38.62166775 -48.04261152 38.62166775 -46.05639648 38.35351562 C-43.01077539 37.05136278 -40.03294132 35.62836427 -37.06030273 34.16992188 C-18.81547738 25.41992188 -18.81547738 25.41992188 -11.87280273 25.41992188 C-11.92500977 23.91751953 -11.92500977 23.91751953 -11.97827148 22.38476562 C-12.31200275 8.82437904 -12.31200275 8.82437904 -8.87280273 3.41992188 C-5.91165025 0.71995846 -3.98052206 0.03958904 0 0 Z M-28.87280273 94.41992188 C-30.10450195 95.51240234 -30.10450195 95.51240234 -31.36108398 96.62695312 C-44.86534424 109.31153142 -52.81509161 126.53060378 -54.12670898 144.99414062 C-54.7588829 165.8150943 -47.99608452 185.14140452 -33.77905273 200.51757812 C-20.20002657 214.42969196 -2.3161586 222.30589925 17.06396484 222.76196289 C17.97170654 222.77283936 18.87944824 222.78371582 19.81469727 222.79492188 C20.70116943 222.809021 21.5876416 222.82312012 22.50097656 222.83764648 C23.33024658 222.83128174 24.1595166 222.82491699 25.01391602 222.81835938 C25.75859131 222.81497559 26.5032666 222.8115918 27.27050781 222.80810547 C29.54004183 222.55998734 29.54004183 222.55998734 31.12719727 219.41992188 C30.6476128 214.81770171 27.39556766 212.42845065 24.18969727 209.41992188 C19.12405879 204.6327454 15.88749416 201.4588839 15.56469727 194.16992188 C15.5015332 193.27789062 15.43836914 192.38585937 15.37329102 191.46679688 C17.22591769 183.97949738 25.61343439 177.78494552 30.95922852 172.45507812 C31.67705002 171.7362999 32.39487152 171.01752167 33.13444519 170.27696228 C34.63657979 168.77415258 36.13995624 167.27258321 37.64453125 165.7722168 C39.95437922 163.46777428 42.25877817 161.15797798 44.56274414 158.84765625 C46.02791799 157.38314238 47.49340156 155.9189383 48.95922852 154.45507812 C49.64878128 153.76350113 50.33833405 153.07192413 51.04878235 152.35939026 C51.68672226 151.72460251 52.32466217 151.08981476 52.98193359 150.43579102 C53.54262039 149.87589981 54.10330719 149.31600861 54.6809845 148.739151 C57.45141148 146.21197931 59.72506683 146.20221761 63.37719727 146.10742188 C64.31047852 146.07003906 65.24375977 146.03265625 66.20532227 145.99414062 C73.17917244 147.0103835 77.67296114 152.81532512 82.15844727 157.79296875 C83.67140854 159.44491075 83.67140854 159.44491075 86.12719727 161.41992188 C88.63355038 161.29150449 89.90064403 160.53319849 92.12719727 159.41992188 C92.96065655 136.61554976 88.40334793 116.58709926 72.87329102 99.16601562 C58.22578157 84.51850618 40.14342189 76.63651333 19.31469727 75.98242188 C1.47074203 76.13837778 -15.5580175 82.46329324 -28.87280273 94.41992188 Z M143.12719727 195.41992188 C141.90516602 195.76023438 140.68313477 196.10054687 139.42407227 196.45117188 C125.06213876 200.82476479 112.71106545 207.87838858 101.12719727 217.41992188 C100.19133789 218.19078125 99.25547852 218.96164063 98.29125977 219.75585938 C78.45518 236.92490321 65.06535432 262.33733466 62.12719727 288.41992188 C60.56872961 318.87286109 65.92548894 348.68429949 86.93969727 372.04492188 C87.64739258 372.7796875 88.35508789 373.51445312 89.08422852 374.27148438 C91.12719727 376.41992188 91.12719727 376.41992188 93.07250977 378.91992188 C108.49894559 397.68972972 135.53229773 408.50384177 159.12719727 411.41992188 C181.05650897 412.8948852 205.23413878 410.83860561 224.12719727 398.41992188 C222.82044638 395.54602074 221.41926824 393.45107677 219.21313477 391.19946289 C218.62491943 390.59526016 218.0367041 389.99105743 217.43066406 389.36854553 C216.79427002 388.72678879 216.15787598 388.08503204 215.50219727 387.42382812 C214.8406665 386.75326889 214.17913574 386.08270966 213.49755859 385.39183044 C212.09478694 383.97456164 210.68919528 382.56007924 209.28100586 381.14819336 C207.15035503 379.00570827 205.03909601 376.84530501 202.92797852 374.68359375 C191.79717286 363.416642 183.76698571 357.67056 167.56469727 357.10742188 C152.88972039 356.34110896 139.11191702 351.03500782 128.32641602 340.86914062 C116.82124648 328.05610102 111.40509912 312.63918534 112.12719727 295.41992188 C112.39789414 292.07821566 112.74800782 288.75074744 113.12719727 285.41992188 C118.20426592 289.56196771 122.78285835 294.07520221 127.27954102 298.82617188 C128.39689016 299.99330726 129.51473687 301.15996649 130.63305664 302.32617188 C132.36210158 304.1294491 134.08182405 305.93841675 135.77929688 307.77148438 C141.76037194 314.7473517 141.76037194 314.7473517 149.51953125 319.05371094 C151.9034869 318.82007952 153.86340317 318.19774936 156.12719727 317.41992188 C158.09765488 317.10878809 160.07056226 316.81292948 162.04516602 316.52929688 C173.17020283 314.66195187 173.17020283 314.66195187 181.78100586 308.14453125 C184.12171455 302.91431192 185.08740226 297.49335648 185.78637695 291.83398438 C186.12719727 289.41992188 186.12719727 289.41992188 187.22875977 285.57617188 C188.09132266 282.54595094 188.42202089 280.53150101 188.12719727 277.41992188 C186.95597879 275.53841303 186.95597879 275.53841303 185.20556641 273.9465332 C184.56813004 273.31270218 183.93069366 272.67887115 183.27394104 272.02583313 C182.22870522 271.02401253 182.22870522 271.02401253 181.16235352 270.00195312 C180.45445175 269.30349777 179.74654999 268.60504242 179.01719666 267.88542175 C176.7528483 265.6556843 174.47205728 263.44370576 172.18969727 261.23242188 C169.9144406 259.00707066 167.64266869 256.77824443 165.37290955 254.54728699 C163.95902441 253.15987673 162.54127866 251.77638804 161.11940002 250.39717102 C160.47881149 249.77279648 159.83822296 249.14842194 159.17822266 248.50512695 C158.61196671 247.95617264 158.04571075 247.40721832 157.46229553 246.84162903 C156.12719727 245.41992188 156.12719727 245.41992188 155.12719727 243.41992188 C174.42154369 241.56641406 190.28021533 243.16923466 206.37719727 255.10742188 C216.81470061 263.88365057 223.67878228 276.06789883 226.12719727 289.41992188 C226.35834414 292.13455376 226.55327534 294.82627293 226.68969727 297.54492188 C227.43629129 312.38174981 231.81875869 320.62717615 242.42407227 331.08007812 C243.09891663 331.75542099 243.77376099 332.43076385 244.46905518 333.12657166 C245.88063593 334.53583228 247.29586045 335.94145203 248.71459961 337.34350586 C250.89439237 339.49942869 253.06026804 341.6686634 255.22485352 343.83984375 C256.60296522 345.21238678 257.98184366 346.58416048 259.36157227 347.95507812 C260.01051453 348.60493179 260.65945679 349.25478546 261.32806396 349.92433167 C261.92919006 350.51592575 262.53031616 351.10751984 263.1496582 351.71704102 C263.67783142 352.24060684 264.20600464 352.76417267 264.75018311 353.30360413 C266.09068863 354.62983541 266.09068863 354.62983541 268.12719727 354.41992188 C281.08120312 330.91574631 285.81691494 301.62247705 278.71801758 275.42578125 C273.73773997 258.51753297 266.70452427 243.85620992 255.12719727 230.41992188 C254.57547852 229.73542969 254.02375977 229.0509375 253.45532227 228.34570312 C237.14370855 208.57758079 210.4895729 195.12728524 185.12719727 192.41992188 C170.98258104 191.79981062 156.81777136 191.43487214 143.12719727 195.41992188 Z " fill="#49C994" transform="translate(139.872802734375,9.580078125)"/>
<path d="M0 0 C0.96457626 -0.01591187 1.92915253 -0.03182373 2.92295837 -0.04821777 C4.47618553 -0.0485199 4.47618553 -0.0485199 6.06079102 -0.04882812 C7.13087906 -0.05644165 8.2009671 -0.06405518 9.30348206 -0.07189941 C11.56541613 -0.08269963 13.82740008 -0.08555385 16.08935547 -0.08105469 C19.54877948 -0.0800826 23.00598425 -0.12170286 26.46508789 -0.16601562 C28.66365097 -0.17122281 30.86222177 -0.17391082 33.06079102 -0.17382812 C34.09425156 -0.19022339 35.1277121 -0.20661865 36.19248962 -0.22351074 C43.36210399 -0.15456963 43.36210399 -0.15456963 47.25634766 2.76953125 C49.59507523 6.08275408 50.25463247 8.47104008 50.22485352 12.43164062 C50.22163086 13.18896484 50.2184082 13.94628906 50.21508789 14.7265625 C50.20670898 15.51224609 50.19833008 16.29792969 50.18969727 17.10742188 C50.18518555 17.90470703 50.18067383 18.70199219 50.17602539 19.5234375 C50.16425577 21.48896444 50.14632075 23.45445273 50.12719727 25.41992188 C50.80782227 25.55527344 51.48844727 25.690625 52.18969727 25.83007812 C62.43373198 28.10501668 72.23895169 32.05521012 81.35375977 37.26367188 C83.98174746 38.68907274 83.98174746 38.68907274 86.25610352 37.85742188 C89.16773184 35.62051327 91.54289549 32.9842562 94.02954102 30.29492188 C97.59294122 27.10975968 100.02147815 26.41457776 104.81469727 26.43774414 C110.29865912 27.21282249 113.18393174 30.57222688 116.87329102 34.44726562 C117.5698732 35.15138077 118.26645538 35.85549591 118.98414612 36.58094788 C121.1946191 38.82384036 123.37925819 41.09015819 125.56469727 43.35742188 C127.05987186 44.87914856 128.55660155 46.39934894 130.05493164 47.91796875 C132.78023434 50.69351204 135.50248326 53.47167664 138.203125 56.27124023 C138.74525131 56.83225937 139.28737762 57.3932785 139.84593201 57.97129822 C142.32343379 60.77241037 142.64127706 63.49332858 142.60766602 67.19726562 C141.65814114 71.58978315 138.2583145 74.38584339 135.12719727 77.41992188 C134.60641602 77.95230469 134.08563477 78.4846875 133.54907227 79.03320312 C132.42564659 80.17922645 131.27929985 81.30273149 130.12719727 82.41992188 C131.59195143 87.15840161 133.48961484 91.52390791 135.62719727 95.98242188 C141.14849752 107.56791174 141.14849752 107.56791174 141.06469727 110.91992188 C139.81102479 114.26304848 137.72228352 116.01946709 135.12719727 118.41992188 C133.8688117 120.93669301 133.91900754 122.83285475 133.81079102 125.64648438 C133.76889648 126.67773438 133.72700195 127.70898438 133.68383789 128.77148438 C133.62486328 130.39183594 133.62486328 130.39183594 133.56469727 132.04492188 C133.52151367 133.13289062 133.47833008 134.22085938 133.43383789 135.34179688 C133.32755197 138.03437357 133.22551669 140.72704441 133.12719727 143.41992188 C132.59578125 143.58484131 132.06436523 143.74976074 131.5168457 143.91967773 C117.91871129 148.18401774 104.99406477 153.29692351 92.12719727 159.41992188 C92.08852539 157.51533203 92.08852539 157.51533203 92.04907227 155.57226562 C91.41812702 133.8099657 85.95635384 113.24907845 70.12719727 97.41992188 C55.00469201 83.60178365 35.89445545 76.30300547 15.27172852 77.07617188 C-1.1906445 78.17079654 -16.54701018 84.39158117 -28.87280273 95.41992188 C-29.62045898 96.07476562 -30.36811523 96.72960937 -31.13842773 97.40429688 C-44.32254068 109.69153139 -51.85677019 127.11730984 -53.12670898 144.99414062 C-53.74776624 165.4489617 -47.22723739 184.38394733 -33.55639648 199.74023438 C-15.83317544 217.43765743 4.93502551 221.72044732 29.12719727 222.41992188 C28.88074463 222.947229 28.63429199 223.47453613 28.38037109 224.01782227 C23.27590555 234.99510347 18.68554499 245.84457386 15.12719727 257.41992188 C14.46534186 259.4215192 13.80019826 261.42204448 13.12719727 263.41992188 C12.46187988 263.42926758 11.7965625 263.43861328 11.11108398 263.44824219 C8.07405708 263.50218207 5.03853148 263.58578249 2.00219727 263.66992188 C0.95547852 263.68410156 -0.09124023 263.69828125 -1.16967773 263.71289062 C-7.32516234 263.90768444 -11.22177646 264.24162286 -15.87280273 268.41992188 C-16.53280273 269.40992188 -17.19280273 270.39992188 -17.87280273 271.41992188 C-25.80229931 269.98544008 -32.11254006 267.07141924 -39.20678711 263.34570312 C-40.01051758 262.94222656 -40.81424805 262.53875 -41.64233398 262.12304688 C-42.3601001 261.74825195 -43.07786621 261.37345703 -43.81738281 260.98730469 C-45.90031726 260.20005076 -45.90031726 260.20005076 -47.99414062 261.18041992 C-50.49891821 262.83301977 -52.42157723 264.81939764 -54.49780273 266.98242188 C-59.56091115 272.23897131 -59.56091115 272.23897131 -64.49780273 272.91992188 C-68.07290517 272.84095136 -69.69419342 272.1109988 -72.30639648 269.69726562 C-72.99797852 269.06095215 -73.68956055 268.42463867 -74.40209961 267.76904297 C-75.62509766 266.60622803 -75.62509766 266.60622803 -76.87280273 265.41992188 C-77.60345947 264.73255951 -77.60345947 264.73255951 -78.34887695 264.03131104 C-81.78057664 260.79991691 -85.16797763 257.52689845 -88.52978516 254.22290039 C-89.72233231 253.05717042 -90.92198437 251.89866716 -92.12841797 250.74731445 C-93.89246366 249.06248737 -95.63232291 247.35565372 -97.36889648 245.64257812 C-97.90735703 245.13710953 -98.44581757 244.63164093 -99.00059509 244.1108551 C-103.1253234 239.96362056 -103.72231579 237.05611123 -103.87280273 231.41992188 C-101.98149646 225.07053652 -96.56543303 220.84693159 -91.87280273 216.41992188 C-93.2819414 211.85068511 -95.1477398 207.63903265 -97.24780273 203.35742188 C-104.87280273 187.4543042 -104.87280273 187.4543042 -104.87280273 180.41992188 C-106.03038086 180.45472656 -107.18795898 180.48953125 -108.38061523 180.52539062 C-109.91966314 180.55354394 -111.45872685 180.58084244 -112.99780273 180.60742188 C-113.75834961 180.63255859 -114.51889648 180.65769531 -115.30249023 180.68359375 C-120.2461712 180.74752066 -123.60716932 180.20101114 -127.87280273 177.41992188 C-130.00897351 174.21566571 -130.1302025 173.3487459 -130.16333008 169.66064453 C-130.17608978 168.69599274 -130.18884949 167.73134094 -130.20199585 166.73745728 C-130.2042215 165.69681122 -130.20644714 164.65616516 -130.20874023 163.58398438 C-130.21539703 162.51248138 -130.22205383 161.44097839 -130.22891235 160.33700562 C-130.2390426 158.06908893 -130.24372926 155.80114241 -130.2434082 153.53320312 C-130.24777712 150.06525442 -130.28408248 146.59858247 -130.32202148 143.13085938 C-130.32789038 140.92773873 -130.33185929 138.72461204 -130.33374023 136.52148438 C-130.34811127 135.48488678 -130.3624823 134.44828918 -130.37728882 133.38027954 C-130.33171719 126.18928556 -130.33171719 126.18928556 -128.01635742 122.30761719 C-123.27825224 118.1350626 -118.04193989 118.1426471 -111.99780273 118.29492188 C-111.30944336 118.30394531 -110.62108398 118.31296875 -109.91186523 118.32226562 C-108.23202435 118.34559675 -106.55236527 118.38145861 -104.87280273 118.41992188 C-104.74905273 117.7625 -104.62530273 117.10507813 -104.49780273 116.42773438 C-102.1716811 105.69849832 -97.98483237 94.58796633 -91.87280273 85.41992188 C-92.07834875 81.4076637 -94.49382677 79.55163702 -97.31030273 76.91992188 C-101.1392096 73.33070581 -103.55826127 70.83140647 -104.24780273 65.54492188 C-103.45086071 58.90373833 -98.04838766 54.29807834 -93.49780273 49.77929688 C-92.89145996 49.17104065 -92.28511719 48.56278442 -91.66040039 47.93609619 C-90.38534992 46.6596919 -89.10779903 45.38578096 -87.82788086 44.11425781 C-85.87174488 42.16886983 -83.92655619 40.21299107 -81.98217773 38.25585938 C-80.73802714 37.01302979 -79.4932566 35.77082043 -78.24780273 34.52929688 C-77.66853027 33.94597595 -77.08925781 33.36265503 -76.49243164 32.76165771 C-72.88456674 29.19534645 -70.17946165 26.72079043 -64.99780273 26.04492188 C-58.11677717 26.87064494 -54.2005213 31.98912019 -49.80249023 36.90820312 C-48.04261152 38.62166775 -48.04261152 38.62166775 -46.05639648 38.35351562 C-43.01077539 37.05136278 -40.03294132 35.62836427 -37.06030273 34.16992188 C-18.81547738 25.41992188 -18.81547738 25.41992188 -11.87280273 25.41992188 C-11.92500977 23.91751953 -11.92500977 23.91751953 -11.97827148 22.38476562 C-12.31200275 8.82437904 -12.31200275 8.82437904 -8.87280273 3.41992188 C-5.91165025 0.71995846 -3.98052206 0.03958904 0 0 Z " fill="#FEBC1C" transform="translate(139.872802734375,9.580078125)"/>
<path d="M0 0 C1.55730583 -0.01441132 1.55730583 -0.01441132 3.14607239 -0.02911377 C4.82113106 -0.03548859 4.82113106 -0.03548859 6.5300293 -0.04199219 C7.68415817 -0.04769226 8.83828705 -0.05339233 10.02738953 -0.05926514 C12.46925949 -0.06870909 14.91114216 -0.07524672 17.35302734 -0.07910156 C21.07957305 -0.08880295 24.80556621 -0.11983124 28.53198242 -0.15136719 C30.90632811 -0.15789796 33.28067774 -0.16314814 35.6550293 -0.16699219 C37.32097893 -0.18551239 37.32097893 -0.18551239 39.02058411 -0.20440674 C46.2560038 -0.18368036 51.523333 0.32277238 57.16674805 5.22363281 C59.88697651 8.46698213 59.9113396 10.4387378 59.8894043 14.60644531 C59.88618164 15.6828125 59.88295898 16.75917969 59.87963867 17.86816406 C59.87125977 18.99609375 59.86288086 20.12402344 59.85424805 21.28613281 C59.84973633 22.42179687 59.84522461 23.55746094 59.84057617 24.72753906 C59.8287642 27.53878919 59.81229312 30.34993512 59.79174805 33.16113281 C58.95329346 33.1652417 58.11483887 33.16935059 57.25097656 33.17358398 C13.37144176 33.54759979 -25.49741518 43.9932572 -59.20825195 73.16113281 C-60.06032227 73.87914062 -60.91239258 74.59714844 -61.7902832 75.33691406 C-68.03316433 80.73590343 -73.20546664 86.60843123 -78.20825195 93.16113281 C-78.98813477 94.15242188 -79.76801758 95.14371094 -80.5715332 96.16503906 C-92.44607259 111.67585808 -100.84442576 129.44480312 -106.20825195 148.16113281 C-106.50989258 149.07894531 -106.8115332 149.99675781 -107.12231445 150.94238281 C-119.39537117 190.11698808 -110.86589078 233.39525451 -92.33325195 268.97363281 C-85.60770092 281.40495827 -76.98831424 292.02774458 -67.20825195 302.16113281 C-66.4193457 303.01320313 -65.63043945 303.86527344 -64.81762695 304.74316406 C-36.34176898 334.6805313 5.19016026 348.84223539 45.66674805 349.91113281 C50.37466965 350.02615245 55.08271438 350.10771526 59.79174805 350.16113281 C59.8790753 354.05682417 59.9322499 357.95226264 59.97924805 361.84863281 C60.00438477 362.95142578 60.02952148 364.05421875 60.05541992 365.19042969 C60.06992187 366.79047852 60.06992187 366.79047852 60.0847168 368.42285156 C60.10828247 369.89177856 60.10828247 369.89177856 60.13232422 371.39038086 C59.72023497 374.74292632 58.84994539 376.48959322 56.79174805 379.16113281 C53.00382559 381.91306354 50.35268801 382.53882373 45.70385742 382.54931641 C44.49910767 382.55877289 43.29435791 382.56822937 42.05310059 382.57797241 C40.11388733 382.56886337 40.11388733 382.56886337 38.13549805 382.55957031 C36.78698571 382.56159307 35.43847443 382.56450618 34.08996582 382.56826782 C31.26893663 382.57268176 28.44819315 382.56629054 25.62719727 382.55224609 C22.01909389 382.53515427 18.41166007 382.54500052 14.80358124 382.56296349 C12.02051794 382.57382678 9.23761223 382.57034342 6.45454407 382.56258011 C4.47982344 382.55961805 2.50509657 382.56869668 0.53039551 382.57797241 C-0.67435425 382.56851593 -1.879104 382.55905945 -3.12036133 382.54931641 C-4.70657288 382.54573624 -4.70657288 382.54573624 -6.3248291 382.54208374 C-9.64975531 382.10280245 -11.51453583 381.12875236 -14.20825195 379.16113281 C-17.43660781 374.6644943 -18.34090565 370.85511016 -18.3059082 365.39550781 C-18.30268555 364.50605469 -18.29946289 363.61660156 -18.29614258 362.70019531 C-18.28776367 361.77980469 -18.27938477 360.85941406 -18.27075195 359.91113281 C-18.26624023 358.97527344 -18.26172852 358.03941406 -18.25708008 357.07519531 C-18.24532113 354.7704424 -18.22888621 352.46582055 -18.20825195 350.16113281 C-18.92408447 350.01313232 -19.63991699 349.86513184 -20.37744141 349.71264648 C-33.86802086 346.82973862 -47.41618947 341.40617186 -59.11450195 334.09472656 C-61.70996321 332.93742201 -62.57086474 333.2289962 -65.20825195 334.16113281 C-67.30517879 336.09566178 -69.26153317 338.02422085 -71.20825195 340.09863281 C-78.45881476 347.77094866 -78.45881476 347.77094866 -83.57543945 348.49707031 C-84.40301758 348.50996094 -85.2305957 348.52285156 -86.08325195 348.53613281 C-86.90567383 348.56449219 -87.7280957 348.59285156 -88.57543945 348.62207031 C-95.62605296 347.38768991 -100.77771113 340.88331561 -105.59887695 336.03613281 C-106.38470154 335.25222168 -107.17052612 334.46831055 -107.98016357 333.66064453 C-109.63319651 332.00896799 -111.28372489 330.35478145 -112.93188477 328.69824219 C-115.45668825 326.16270317 -117.99201547 323.63804058 -120.52856445 321.11425781 C-122.1359772 319.50552394 -123.74276968 317.89617003 -125.34887695 316.28613281 C-126.10718811 315.53187012 -126.86549927 314.77760742 -127.64678955 314.00048828 C-128.34801941 313.2929541 -129.04924927 312.58541992 -129.77172852 311.85644531 C-130.3887262 311.23785645 -131.00572388 310.61926758 -131.64141846 309.98193359 C-135.38380198 305.63294893 -135.82382224 301.57526112 -135.7121582 295.96972656 C-134.82975371 291.05151856 -131.79508197 288.42675417 -128.20825195 285.16113281 C-126.69869083 283.77564521 -125.19847493 282.37989956 -123.70825195 280.97363281 C-123.01731445 280.36132812 -122.32637695 279.74902344 -121.61450195 279.11816406 C-119.97739326 277.25384074 -119.97739326 277.25384074 -120.2590332 274.87988281 C-121.48802163 271.35981719 -123.15347622 268.13317199 -124.89575195 264.84863281 C-130.63661185 253.68023916 -134.9801439 242.54966568 -137.20825195 230.16113281 C-137.90909912 230.17684326 -138.60994629 230.19255371 -139.33203125 230.20874023 C-142.51985546 230.27125694 -145.70755047 230.31017662 -148.89575195 230.34863281 C-149.99854492 230.37376953 -151.10133789 230.39890625 -152.23754883 230.42480469 C-153.30424805 230.43447266 -154.37094727 230.44414062 -155.4699707 230.45410156 C-156.93889771 230.47766724 -156.93889771 230.47766724 -158.4375 230.50170898 C-161.71667187 230.09863869 -163.54972824 229.09122276 -166.20825195 227.16113281 C-169.54735873 222.51023409 -170.32716388 218.58940078 -170.36938477 212.95288086 C-170.37899231 211.91467697 -170.38859985 210.87647308 -170.39849854 209.80680847 C-170.40274841 208.69010269 -170.40699829 207.57339691 -170.41137695 206.42285156 C-170.41707703 205.26872269 -170.4227771 204.11459381 -170.4286499 202.92549133 C-170.43809385 200.48362137 -170.44463148 198.0417387 -170.44848633 195.59985352 C-170.45818772 191.87330781 -170.489216 188.14731465 -170.52075195 184.42089844 C-170.52728272 182.04655275 -170.5325329 179.67220312 -170.53637695 177.29785156 C-170.54872375 176.18721848 -170.56107056 175.07658539 -170.5737915 173.93229675 C-170.55649591 167.89453844 -170.21143893 163.45427221 -167.20825195 158.16113281 C-163.03911866 154.29705805 -160.58798981 153.03267271 -154.98168945 153.06347656 C-153.95043945 153.06669922 -152.91918945 153.06992187 -151.85668945 153.07324219 C-150.77645508 153.08162109 -149.6962207 153.09 -148.58325195 153.09863281 C-146.95129883 153.10540039 -146.95129883 153.10540039 -145.28637695 153.11230469 C-142.59361406 153.12411505 -139.90096007 153.14058503 -137.20825195 153.16113281 C-137.06025146 152.35836914 -136.91225098 151.55560547 -136.75976562 150.72851562 C-134.1035433 136.8583082 -127.95395072 123.80596566 -121.1418457 111.50878906 C-120.04409076 108.7483258 -120.23069173 107.9056183 -121.20825195 105.16113281 C-123.14278092 103.06420598 -125.07133999 101.10785159 -127.14575195 99.16113281 C-132.21139042 94.37395634 -135.44795506 91.20009484 -135.77075195 83.91113281 C-135.83391602 83.01910156 -135.89708008 82.12707031 -135.9621582 81.20800781 C-134.09003181 73.64190115 -125.5545857 67.35907596 -120.1574707 61.97753906 C-119.41745316 61.23656479 -118.67743561 60.49559052 -117.91499329 59.73216248 C-116.36578036 58.18227422 -114.81532468 56.63362724 -113.26367188 55.08618164 C-110.8813969 52.70931032 -108.50456699 50.32708636 -106.12817383 47.94433594 C-104.61742706 46.43424917 -103.10637055 44.92447219 -101.5949707 43.41503906 C-100.88354416 42.70158829 -100.17211761 41.98813751 -99.43913269 41.25306702 C-98.78117203 40.59825851 -98.12321136 39.94345001 -97.4453125 39.26879883 C-96.57763496 38.40231468 -96.57763496 38.40231468 -95.69242859 37.51832581 C-92.90076817 34.96551513 -90.64567166 34.94434453 -86.95825195 34.84863281 C-86.0249707 34.81125 -85.09168945 34.77386719 -84.13012695 34.73535156 C-77.15627678 35.75159444 -72.66248808 41.55653606 -68.17700195 46.53417969 C-66.66404068 48.18612169 -66.66404068 48.18612169 -64.20825195 50.16113281 C-61.06899819 49.77041728 -58.37161785 48.39818677 -55.5324707 47.05175781 C-54.62883789 46.62886475 -53.72520508 46.20597168 -52.79418945 45.77026367 C-51.83770508 45.32175049 -50.8812207 44.8732373 -49.89575195 44.41113281 C-39.3399691 39.53636548 -28.7996772 34.85445849 -17.20825195 33.16113281 C-17.22919922 32.49581543 -17.25014648 31.83049805 -17.27172852 31.14501953 C-17.35525804 28.10887979 -17.40702798 25.07298238 -17.45825195 22.03613281 C-17.49176758 20.98941406 -17.5252832 19.94269531 -17.55981445 18.86425781 C-17.63900879 12.60790554 -17.42810612 8.90456147 -13.20825195 4.16113281 C-9.12092005 0.45698827 -5.38523534 0.04033862 0 0 Z " fill="#34BA82" transform="translate(290.208251953125,119.8388671875)"/>
<path d="M0 0 C0.96457626 -0.01591187 1.92915253 -0.03182373 2.92295837 -0.04821777 C4.47618553 -0.0485199 4.47618553 -0.0485199 6.06079102 -0.04882812 C7.13087906 -0.05644165 8.2009671 -0.06405518 9.30348206 -0.07189941 C11.56541613 -0.08269963 13.82740008 -0.08555385 16.08935547 -0.08105469 C19.54877948 -0.0800826 23.00598425 -0.12170286 26.46508789 -0.16601562 C28.66365097 -0.17122281 30.86222177 -0.17391082 33.06079102 -0.17382812 C34.09425156 -0.19022339 35.1277121 -0.20661865 36.19248962 -0.22351074 C43.36210399 -0.15456963 43.36210399 -0.15456963 47.25634766 2.76953125 C49.59507523 6.08275408 50.25463247 8.47104008 50.22485352 12.43164062 C50.22163086 13.18896484 50.2184082 13.94628906 50.21508789 14.7265625 C50.20670898 15.51224609 50.19833008 16.29792969 50.18969727 17.10742188 C50.18518555 17.90470703 50.18067383 18.70199219 50.17602539 19.5234375 C50.16425577 21.48896444 50.14632075 23.45445273 50.12719727 25.41992188 C48.23614258 25.45859375 48.23614258 25.45859375 46.30688477 25.49804688 C6.5362434 26.64631085 -26.2774196 39.50058955 -53.93530273 68.60742188 C-62.87683891 78.67015381 -69.24744869 90.25619821 -74.87280273 102.41992188 C-75.26209961 103.2578125 -75.65139648 104.09570312 -76.05249023 104.95898438 C-88.01483974 132.68567044 -87.30064029 167.55019911 -76.65454102 195.45751953 C-64.44724726 226.10156301 -42.69576222 250.05097667 -12.87280273 264.41992188 C-14.52280273 266.72992188 -16.17280273 269.03992188 -17.87280273 271.41992188 C-25.80229931 269.98544008 -32.11254006 267.07141924 -39.20678711 263.34570312 C-40.01051758 262.94222656 -40.81424805 262.53875 -41.64233398 262.12304688 C-42.3601001 261.74825195 -43.07786621 261.37345703 -43.81738281 260.98730469 C-45.90031726 260.20005076 -45.90031726 260.20005076 -47.99414062 261.18041992 C-50.49891821 262.83301977 -52.42157723 264.81939764 -54.49780273 266.98242188 C-59.56091115 272.23897131 -59.56091115 272.23897131 -64.49780273 272.91992188 C-68.07290517 272.84095136 -69.69419342 272.1109988 -72.30639648 269.69726562 C-72.99797852 269.06095215 -73.68956055 268.42463867 -74.40209961 267.76904297 C-75.62509766 266.60622803 -75.62509766 266.60622803 -76.87280273 265.41992188 C-77.60345947 264.73255951 -77.60345947 264.73255951 -78.34887695 264.03131104 C-81.78057664 260.79991691 -85.16797763 257.52689845 -88.52978516 254.22290039 C-89.72233231 253.05717042 -90.92198437 251.89866716 -92.12841797 250.74731445 C-93.89246366 249.06248737 -95.63232291 247.35565372 -97.36889648 245.64257812 C-97.90735703 245.13710953 -98.44581757 244.63164093 -99.00059509 244.1108551 C-103.1253234 239.96362056 -103.72231579 237.05611123 -103.87280273 231.41992188 C-101.98149646 225.07053652 -96.56543303 220.84693159 -91.87280273 216.41992188 C-93.2819414 211.85068511 -95.1477398 207.63903265 -97.24780273 203.35742188 C-104.87280273 187.4543042 -104.87280273 187.4543042 -104.87280273 180.41992188 C-106.03038086 180.45472656 -107.18795898 180.48953125 -108.38061523 180.52539062 C-109.91966314 180.55354394 -111.45872685 180.58084244 -112.99780273 180.60742188 C-113.75834961 180.63255859 -114.51889648 180.65769531 -115.30249023 180.68359375 C-120.2461712 180.74752066 -123.60716932 180.20101114 -127.87280273 177.41992188 C-130.00897351 174.21566571 -130.1302025 173.3487459 -130.16333008 169.66064453 C-130.17608978 168.69599274 -130.18884949 167.73134094 -130.20199585 166.73745728 C-130.2042215 165.69681122 -130.20644714 164.65616516 -130.20874023 163.58398438 C-130.21539703 162.51248138 -130.22205383 161.44097839 -130.22891235 160.33700562 C-130.2390426 158.06908893 -130.24372926 155.80114241 -130.2434082 153.53320312 C-130.24777712 150.06525442 -130.28408248 146.59858247 -130.32202148 143.13085938 C-130.32789038 140.92773873 -130.33185929 138.72461204 -130.33374023 136.52148438 C-130.34811127 135.48488678 -130.3624823 134.44828918 -130.37728882 133.38027954 C-130.33171719 126.18928556 -130.33171719 126.18928556 -128.01635742 122.30761719 C-123.27825224 118.1350626 -118.04193989 118.1426471 -111.99780273 118.29492188 C-111.30944336 118.30394531 -110.62108398 118.31296875 -109.91186523 118.32226562 C-108.23202435 118.34559675 -106.55236527 118.38145861 -104.87280273 118.41992188 C-104.74905273 117.7625 -104.62530273 117.10507813 -104.49780273 116.42773438 C-102.1716811 105.69849832 -97.98483237 94.58796633 -91.87280273 85.41992188 C-92.07834875 81.4076637 -94.49382677 79.55163702 -97.31030273 76.91992188 C-101.1392096 73.33070581 -103.55826127 70.83140647 -104.24780273 65.54492188 C-103.45086071 58.90373833 -98.04838766 54.29807834 -93.49780273 49.77929688 C-92.89145996 49.17104065 -92.28511719 48.56278442 -91.66040039 47.93609619 C-90.38534992 46.6596919 -89.10779903 45.38578096 -87.82788086 44.11425781 C-85.87174488 42.16886983 -83.92655619 40.21299107 -81.98217773 38.25585938 C-80.73802714 37.01302979 -79.4932566 35.77082043 -78.24780273 34.52929688 C-77.66853027 33.94597595 -77.08925781 33.36265503 -76.49243164 32.76165771 C-72.88456674 29.19534645 -70.17946165 26.72079043 -64.99780273 26.04492188 C-58.11677717 26.87064494 -54.2005213 31.98912019 -49.80249023 36.90820312 C-48.04261152 38.62166775 -48.04261152 38.62166775 -46.05639648 38.35351562 C-43.01077539 37.05136278 -40.03294132 35.62836427 -37.06030273 34.16992188 C-18.81547738 25.41992188 -18.81547738 25.41992188 -11.87280273 25.41992188 C-11.92500977 23.91751953 -11.92500977 23.91751953 -11.97827148 22.38476562 C-12.31200275 8.82437904 -12.31200275 8.82437904 -8.87280273 3.41992188 C-5.91165025 0.71995846 -3.98052206 0.03958904 0 0 Z " fill="#F5B000" transform="translate(139.872802734375,9.580078125)"/>
<path d="M0 0 C10.51786301 8.6480207 17.43226862 20.74631759 19.59765625 34.19140625 C19.77092296 36.77665551 19.91449521 39.35403231 20.03515625 41.94140625 C20.91115362 56.92146965 25.04488724 65.29863749 36 75.67578125 C37.39816532 77.03606903 38.79594095 78.39675745 40.19335938 79.7578125 C42.37611784 81.86569541 44.56344747 83.9684204 46.75805664 86.06396484 C48.8934093 88.10907132 51.0100034 90.17216033 53.125 92.23828125 C53.78942612 92.86232849 54.45385223 93.48637573 55.13841248 94.1293335 C56.79226469 95.75530876 58.28750972 97.27784868 59.59765625 99.19140625 C59.6414573 107.84172843 48.84712129 118.61319743 43.19140625 124.70703125 C38.0298564 129.65092539 32.35712046 133.9706518 26.59765625 138.19140625 C25.57027344 138.97773438 24.54289062 139.7640625 23.484375 140.57421875 C20.59765625 142.19140625 20.59765625 142.19140625 18.36328125 142.22509766 C14.08820239 140.62722655 11.55813561 137.54178426 8.4609375 134.26953125 C7.06455127 132.8371439 5.66806361 131.40485542 4.27148438 129.97265625 C2.09340689 127.71409044 -0.0802548 125.45141663 -2.25073242 123.18554688 C-4.35674243 120.99431704 -6.47837719 118.81910449 -8.6015625 116.64453125 C-9.23422531 115.97351379 -9.86688812 115.30249634 -10.51872253 114.61114502 C-19.12371773 105.82283426 -27.93526181 103.29701486 -39.96484375 102.87890625 C-56.39374659 102.02100504 -71.2797735 95.46211278 -82.40234375 83.19140625 C-92.24223915 70.81816258 -97.50736647 56.12429195 -96.40234375 40.19140625 C-95.8618282 36.82610944 -95.17826011 33.50983426 -94.40234375 30.19140625 C-91.49290893 31.49889301 -89.51148704 32.86249266 -87.3371582 35.18823242 C-86.76588699 35.79193161 -86.19461578 36.3956308 -85.60603333 37.0176239 C-84.99869858 37.66665176 -84.39136383 38.31567963 -83.765625 38.984375 C-82.45371279 40.35079986 -81.14052122 41.71599735 -79.82617188 43.08007812 C-77.76429757 45.22844745 -75.71116351 47.38284776 -73.67895508 49.55932617 C-71.70991886 51.66184021 -69.71027967 53.73080598 -67.703125 55.796875 C-67.10591141 56.45197556 -66.50869781 57.10707611 -65.89338684 57.7820282 C-62.57572397 61.16933898 -62.57572397 61.16933898 -58.14253235 62.41007996 C-55.81795042 62.18122601 -53.66425973 61.7678879 -51.40234375 61.19140625 C-49.91263062 60.86257446 -49.91263062 60.86257446 -48.39282227 60.52709961 C-47.53100342 60.28096924 -46.66918457 60.03483887 -45.78125 59.78125 C-44.82669922 59.51376953 -43.87214844 59.24628906 -42.88867188 58.97070312 C-41.92380859 58.69291016 -40.95894531 58.41511719 -39.96484375 58.12890625 C-38.00841958 57.5733784 -36.051416 57.01988569 -34.09375 56.46875 C-33.23982666 56.22374756 -32.38590332 55.97874512 -31.50610352 55.72631836 C-29.40234375 55.19140625 -29.40234375 55.19140625 -27.40234375 55.19140625 C-27.14839844 54.09183594 -26.89445312 52.99226563 -26.6328125 51.859375 C-26.28563649 50.36577371 -25.93794504 48.87229217 -25.58984375 47.37890625 C-25.31962402 46.2182666 -25.31962402 46.2182666 -25.04394531 45.03417969 C-23.81466043 39.80591143 -22.45864083 34.6347816 -20.91796875 29.48828125 C-20.33765616 26.90325246 -20.18052215 24.83650026 -20.40234375 22.19140625 C-21.58063349 20.30930998 -21.58063349 20.30930998 -23.33984375 18.71801758 C-23.98050781 18.08418655 -24.62117188 17.45035553 -25.28125 16.7973175 C-25.98121094 16.1294371 -26.68117188 15.4615567 -27.40234375 14.7734375 C-28.11261719 14.07498215 -28.82289063 13.37652679 -29.5546875 12.65690613 C-31.82573137 10.42710039 -34.11291963 8.21482348 -36.40234375 6.00390625 C-38.6890864 3.77975167 -40.97221531 1.55209934 -43.25 -0.68122864 C-44.66866823 -2.0705592 -46.09303893 -3.45409412 -47.5234375 -4.8313446 C-48.16410156 -5.45571915 -48.80476563 -6.08009369 -49.46484375 -6.72338867 C-50.03332031 -7.27234299 -50.60179687 -7.8212973 -51.1875 -8.3868866 C-52.40234375 -9.80859375 -52.40234375 -9.80859375 -52.40234375 -11.80859375 C-32.98385371 -16.69349457 -15.66695484 -11.79479689 0 0 Z " fill="#5F7080" transform="translate(347.40234375,264.80859375)"/>
<path d="M0 0 C10.51786301 8.6480207 17.43226862 20.74631759 19.59765625 34.19140625 C19.77092296 36.77665551 19.91449521 39.35403231 20.03515625 41.94140625 C20.91115362 56.92146965 25.04488724 65.29863749 36 75.67578125 C37.39816532 77.03606903 38.79594095 78.39675745 40.19335938 79.7578125 C42.37611784 81.86569541 44.56344747 83.9684204 46.75805664 86.06396484 C48.8934093 88.10907132 51.0100034 90.17216033 53.125 92.23828125 C53.78942612 92.86232849 54.45385223 93.48637573 55.13841248 94.1293335 C56.79218412 95.75522955 58.28719632 97.27821105 59.59765625 99.19140625 C59.628447 103.80550335 57.08437667 106.80765786 54.47265625 110.50390625 C54.07248291 111.07133545 53.67230957 111.63876465 53.26000977 112.22338867 C49.98708193 116.79950493 46.45161493 121.08960456 42.59765625 125.19140625 C41.56427879 124.14771881 41.56427879 124.14771881 40.51002502 123.08294678 C37.39672457 119.97027289 34.19983178 116.94972302 30.99975586 113.92675781 C24.47274927 107.74315647 17.99960862 101.50601592 11.5549078 95.23671341 C7.66057345 91.45209714 3.74903174 87.68956586 -0.20776367 83.97021484 C-4.04671864 80.36011712 -7.8313903 76.70042942 -11.58471489 73.00145721 C-13.0183076 71.60650295 -14.47019412 70.23008556 -15.9403553 68.87372589 C-27.09923924 58.54605375 -27.09923924 58.54605375 -27.60422897 52.95701599 C-27.2161151 48.38778061 -25.86663963 44.26317184 -24.13886833 40.03829193 C-23.08637917 37.3991035 -22.37752891 34.68548994 -21.65234375 31.94140625 C-21.41 31.131875 -21.16765625 30.32234375 -20.91796875 29.48828125 C-20.33765616 26.90325246 -20.18052215 24.83650026 -20.40234375 22.19140625 C-21.58063349 20.30930998 -21.58063349 20.30930998 -23.33984375 18.71801758 C-23.98050781 18.08418655 -24.62117188 17.45035553 -25.28125 16.7973175 C-25.98121094 16.1294371 -26.68117188 15.4615567 -27.40234375 14.7734375 C-28.11261719 14.07498215 -28.82289063 13.37652679 -29.5546875 12.65690613 C-31.82573137 10.42710039 -34.11291963 8.21482348 -36.40234375 6.00390625 C-38.6890864 3.77975167 -40.97221531 1.55209934 -43.25 -0.68122864 C-44.66866823 -2.0705592 -46.09303893 -3.45409412 -47.5234375 -4.8313446 C-48.16410156 -5.45571915 -48.80476563 -6.08009369 -49.46484375 -6.72338867 C-50.03332031 -7.27234299 -50.60179687 -7.8212973 -51.1875 -8.3868866 C-52.40234375 -9.80859375 -52.40234375 -9.80859375 -52.40234375 -11.80859375 C-32.98385371 -16.69349457 -15.66695484 -11.79479689 0 0 Z " fill="#76899B" transform="translate(347.40234375,264.80859375)"/>
</svg>
