<?xml version="1.0" encoding="UTF-8"?>
<!DOCTYPE svg PUBLIC "-//W3C//DTD SVG 1.1//EN" "http://www.w3.org/Graphics/SVG/1.1/DTD/svg11.dtd">
<svg xmlns="http://www.w3.org/2000/svg" version="1.1" width="512px" height="512px" style="shape-rendering:geometricPrecision; text-rendering:geometricPrecision; image-rendering:optimizeQuality; fill-rule:evenodd; clip-rule:evenodd" xmlns:xlink="http://www.w3.org/1999/xlink">
<g><path style="opacity:0.981" fill="#fefffe" d="M 204.5,41.5 C 238.502,41.3333 272.502,41.5 306.5,42C 311.052,43.5881 313.885,46.7548 315,51.5C 317.874,60.6227 321.041,69.6227 324.5,78.5C 342.996,85.9928 360.162,95.6595 376,107.5C 386.463,105.229 396.963,103.229 407.5,101.5C 409.889,102.18 412.222,103.014 414.5,104C 432.866,133.73 450.199,164.064 466.5,195C 465.332,199.168 463.499,203.002 461,206.5C 455.429,212.648 450.096,218.981 445,225.5C 445.826,235.445 446.326,245.445 446.5,255.5C 446.554,264.724 445.887,273.89 444.5,283C 444.667,283.833 444.833,284.667 445,285.5C 451.707,292.538 458.04,299.872 464,307.5C 465.557,310.172 466.724,313.005 467.5,316C 451.199,346.936 433.866,377.27 415.5,407C 413.275,408.131 410.942,408.964 408.5,409.5C 397.916,407.95 387.416,405.95 377,403.5C 361.162,415.341 343.996,425.007 325.5,432.5C 321.79,443.673 317.623,454.673 313,465.5C 311.681,467.487 309.848,468.654 307.5,469C 272.44,469.98 237.44,469.646 202.5,468C 199.894,466.062 198.061,463.562 197,460.5C 193.792,451.041 190.292,441.707 186.5,432.5C 168.004,425.007 150.838,415.341 135,403.5C 124.7,405.894 114.366,407.894 104,409.5C 101.48,408.793 98.9803,407.96 96.5,407C 78.9342,377.759 61.7675,348.259 45,318.5C 44.4024,314.947 45.0691,311.614 47,308.5C 53.2935,300.538 59.9602,292.871 67,285.5C 67.1667,284.667 67.3333,283.833 67.5,283C 66.0746,273.894 65.4079,264.727 65.5,255.5C 65.6261,245.441 66.1261,235.441 67,225.5C 61.6667,219.5 56.3333,213.5 51,207.5C 48.0538,203.942 45.8871,199.942 44.5,195.5C 60.6644,164.338 77.9977,133.838 96.5,104C 98.7249,102.869 101.058,102.036 103.5,101.5C 114.084,103.05 124.584,105.05 135,107.5C 150.838,95.6595 168.004,85.9928 186.5,78.5C 189.973,67.2482 194.14,56.2482 199,45.5C 200.5,43.5313 202.333,42.198 204.5,41.5 Z M 241.5,117.5 C 301.574,115.278 347.074,139.611 378,190.5C 403.176,244.753 397.842,295.753 362,343.5C 320.369,388.929 269.869,403.095 210.5,386C 178.169,374.339 153.002,353.839 135,324.5C 112.804,281.336 111.804,237.67 132,193.5C 156.085,150.213 192.585,124.88 241.5,117.5 Z"/></g>
<g><path style="opacity:0.981" fill="#fefffe" d="M 222.5,176.5 C 228.181,176.585 232.015,179.252 234,184.5C 234.333,206.167 234.667,227.833 235,249.5C 241.167,253.667 247.333,257.833 253.5,262C 254.833,262.667 256.167,262.667 257.5,262C 263.667,257.833 269.833,253.667 276,249.5C 276.333,227.833 276.667,206.167 277,184.5C 278.679,179.564 282.179,176.898 287.5,176.5C 321.938,191.321 339.938,217.655 341.5,255.5C 340.466,287.923 326.299,312.59 299,329.5C 299.137,341.913 298.303,354.08 296.5,366C 268.76,376.12 241.093,375.953 213.5,365.5C 212.667,353.514 212.167,341.514 212,329.5C 178.303,307.446 164.969,276.446 172,236.5C 177.822,212.339 191.322,193.839 212.5,181C 215.815,179.17 219.149,177.67 222.5,176.5 Z"/></g>
</svg>
